<?xml version="1.0" encoding="UTF-8" standalone="no" ?>
<!DOCTYPE svg PUBLIC "-//W3C//DTD SVG 1.1//EN" "http://www.w3.org/Graphics/SVG/1.1/DTD/svg11.dtd">
<svg xmlns="http://www.w3.org/2000/svg" xmlns:xlink="http://www.w3.org/1999/xlink" version="1.1" width="640" height="640" viewBox="0 0 640 640" xml:space="preserve">
<desc>Created with Fabric.js 5.3.0</desc>
<defs>
</defs>
<g transform="matrix(1.1595237956 0 0 1.1595237956 320 320)" id="0CEno5AgfgUILhgc0hvX-"  >
<path style="stroke: rgb(184,79,209); stroke-width: 0; stroke-dasharray: none; stroke-linecap: butt; stroke-dashoffset: 0; stroke-linejoin: miter; stroke-miterlimit: 4; fill: rgb(21,21,21); fill-rule: nonzero; opacity: 1;"  transform=" translate(0, 0)" d="M 0 -275.97536 C 152.3384 -275.97536 275.97536 -152.33840000000004 275.97536 0 C 275.97536 152.3384 152.33840000000004 275.97536 0 275.97536 C -152.3384 275.97536 -275.97536 152.33840000000004 -275.97536 0 C -275.97536 -152.3384 -152.33840000000004 -275.97536 0 -275.97536 z" stroke-linecap="round" />
</g>
<g transform="matrix(2.1275431836 0 0 2.12754326 213.297919069 361.0683218915)" id="4OaSH3P9ErXeVUJoreHD0"  >
<path style="stroke: rgb(255,255,255); stroke-width: 32; stroke-dasharray: none; stroke-linecap: butt; stroke-dashoffset: 0; stroke-linejoin: miter; stroke-miterlimit: 4; fill: rgb(0,0,0); fill-rule: nonzero; opacity: 1;"  transform=" translate(0.0000022696, 0.0000064977)" d="M 31.97658 55.66445 C 27.06448 59.43743 20.84017 61.07381 14.7076 60.20449 C 8.575029999999998 59.33517 3.0507299999999997 56.03338 -0.6192600000000006 51.04385 L -59.467349999999996 -28.963100000000004 L -59.467349999999996 -28.963100000000004 C -65.09908 -36.61972 -64.09252 -47.282720000000005 -57.1275 -53.750240000000005 L -55.56292 -55.203070000000004 L -55.56292 -55.203070000000004 C -48.520669999999996 -61.7423 -37.77256 -62.20098 -30.198809999999998 -56.28548000000001 L 57.15876 11.945369999999997 L 57.15876 11.945369999999997 C 60.928470000000004 14.889709999999997 63.123580000000004 19.412739999999996 63.10422 24.195989999999995 C 63.08486 28.979249999999993 60.8532 33.48434999999999 57.05977 36.39807 z" stroke-linecap="round" />
</g>
<g transform="matrix(2.1275431836 0 0 2.12754326 382.2552073925 320)" id="sAMSz_KfXFbbv8bwglsaL"  >
<path style="stroke: rgb(255,255,255); stroke-width: 32; stroke-dasharray: none; stroke-linecap: butt; stroke-dashoffset: 0; stroke-linejoin: miter; stroke-miterlimit: 4; fill: rgb(0,0,0); fill-rule: nonzero; opacity: 1;"  transform=" translate(0.0000030532, 0.0000025119)" d="M -13.93453 -60.05187 C -5.35652 -73.21831 8.70313 -81.8127 24.33249 -83.44377 C 39.96185 -85.07483 55.49304 -79.56851 66.60469 -68.45686 L 69.5068 -65.55475000000001 L 69.5068 -65.55475000000001 C 79.94221 -55.119340000000015 85.17329 -40.56959000000001 83.77166 -25.87839000000001 C 82.37003 -11.18720000000001 74.48209 2.1109199999999895 62.2617 10.384829999999987 L -38.57515 78.65716999999998 L -38.57515 78.65716999999998 C -50.27525 86.57880999999998 -65.951 85.08324999999998 -75.94211 75.09212999999998 L -75.94211 75.09212999999998 L -75.94211 75.09212999999998 C -85.13231 65.90192999999998 -86.63195999999999 51.53183999999999 -79.53727 40.642169999999986 z" stroke-linecap="round" />
</g>
<g transform="matrix(0.9989462693 0 0 0.9789688947 449.9019085229 250.8411543962)" id="tb3S3nD7ZtgjnmZy2aKJg"  >
<path style="stroke: rgb(0,218,109); stroke-width: 24; stroke-dasharray: none; stroke-linecap: butt; stroke-dashoffset: 0; stroke-linejoin: miter; stroke-miterlimit: 4; fill: rgb(0,218,109); fill-rule: nonzero; opacity: 1;"  transform=" translate(0, 0)" d="M 0 -36.69085 C 20.25336 -36.69085 36.69086 -20.253349999999998 36.69086 0 C 36.69086 20.25335 20.25335 36.69085 0 36.69085 C -20.25336 36.69085 -36.69086 20.253349999999998 -36.69086 0 C -36.69086 -20.25335 -20.25335 -36.69085 0 -36.69085 z" stroke-linecap="round" />
</g>
</svg>